<svg width="24" height="24" viewBox="0 0 24 24" fill="none" xmlns="http://www.w3.org/2000/svg">
<path d="M12.6446 12.935C12.2525 12.935 11.9781 12.7782 11.8213 12.4646C11.6802 12.1509 11.6802 11.8373 11.8213 11.5237C11.9781 11.21 12.2525 11.0532 12.6446 11.0532H15.4673V8.23054C15.4673 7.8385 15.6241 7.57192 15.9377 7.43078C16.2513 7.27397 16.565 7.27397 16.8786 7.43078C17.1922 7.57192 17.349 7.8385 17.349 8.23054V11.0532H20.1717C20.5638 11.0532 20.8303 11.21 20.9715 11.5237C21.1283 11.8373 21.1283 12.1509 20.9715 12.4646C20.8303 12.7782 20.5638 12.935 20.1717 12.935H17.349V15.7577C17.349 16.1497 17.1922 16.4241 16.8786 16.581C16.565 16.7221 16.2513 16.7221 15.9377 16.581C15.6241 16.4241 15.4673 16.1497 15.4673 15.7577V12.935H12.6446Z" fill="#3D3D40"/>
<path d="M2.91101 5.54751C2.91101 5.00913 3.12636 4.63226 3.55707 4.41691C3.98777 4.22309 4.41848 4.22309 4.84918 4.41691C5.27989 4.63226 5.49524 5.00913 5.49524 5.54751L5.49524 18.4687C5.49524 19.007 5.27989 19.3731 4.84918 19.567C4.41848 19.7823 3.98777 19.7823 3.55707 19.567C3.12636 19.3731 2.91101 19.007 2.91101 18.4687L2.91101 5.54751Z" fill="#3D3D40"/>
<path d="M7.78723 6.77504C7.78723 6.33908 8.00258 6.03391 8.43329 5.85953C8.86399 5.70258 9.2947 5.70259 9.72541 5.85953C10.1561 6.03391 10.3715 6.33908 10.3715 6.77504L10.3715 17.2381C10.3715 17.674 10.1561 17.9705 9.7254 18.1274C9.2947 18.3018 8.86399 18.3018 8.43329 18.1274C8.00258 17.9705 7.78723 17.674 7.78723 17.2381L7.78723 6.77504Z" fill="#3D3D40"/>
</svg>
