<svg width="24" height="24" viewBox="0 0 24 24" fill="none" xmlns="http://www.w3.org/2000/svg">
<path d="M8 17C7.28333 17 6.61667 16.825 6 16.475C5.38333 16.1083 4.89167 15.6167 4.525 15C4.175 14.3833 4 13.7167 4 13V4.55C4 4.2 3.94167 3.90833 3.825 3.675C3.725 3.44167 3.55833 3.275 3.325 3.175C3.09167 3.05833 2.8 3 2.45 3H2C1.58333 3 1.29167 2.83333 1.125 2.5C0.975 2.16667 0.975 1.83333 1.125 1.5C1.29167 1.16667 1.58333 0.999999 2 0.999999H2.45C3.35 0.999999 4.125 1.275 4.775 1.825C5.425 2.35833 5.81667 3.05 5.95 3.9V4H17.4C18.2167 4 18.95 4.225 19.6 4.675C20.2667 5.10833 20.7583 5.69167 21.075 6.425C21.3917 7.15833 21.475 7.925 21.325 8.725L20.425 13.725C20.275 14.6583 19.825 15.4417 19.075 16.075C18.3417 16.6917 17.4833 17 16.5 17H8ZM7 22C6.45 22 5.975 21.8083 5.575 21.425C5.19167 21.025 5 20.55 5 20C5 19.4333 5.19167 18.9583 5.575 18.575C5.975 18.1917 6.45 18 7 18C7.56667 18 8.04167 18.1917 8.425 18.575C8.80833 18.9583 9 19.4333 9 20C9 20.55 8.80833 21.025 8.425 21.425C8.04167 21.8083 7.56667 22 7 22ZM17 22C16.45 22 15.975 21.8083 15.575 21.425C15.1917 21.025 15 20.55 15 20C15 19.4333 15.1917 18.9583 15.575 18.575C15.975 18.1917 16.45 18 17 18C17.5667 18 18.0417 18.1917 18.425 18.575C18.8083 18.9583 19 19.4333 19 20C19 20.55 18.8083 21.025 18.425 21.425C18.0417 21.8083 17.5667 22 17 22ZM16.5 15C17.05 15 17.4917 14.8583 17.825 14.575C18.1583 14.2917 18.375 13.8917 18.475 13.375L19.375 8.35C19.4417 7.9 19.4083 7.5 19.275 7.15C19.1417 6.78333 18.9083 6.5 18.575 6.3C18.2417 6.1 17.85 6 17.4 6H6V13C6 13.4 6.075 13.7583 6.225 14.075C6.39167 14.375 6.625 14.6083 6.925 14.775C7.24167 14.925 7.6 15 8 15H16.5Z" fill="#3D3D40"/>
<path d="M9.83231 11.087C9.54875 11.087 9.35026 10.9736 9.23684 10.7468C9.13476 10.5199 9.13476 10.2931 9.23684 10.0662C9.35026 9.83938 9.54875 9.72596 9.83231 9.72596H11.8739V7.68434C11.8739 7.40078 11.9874 7.20796 12.2142 7.10588C12.441 6.99246 12.6679 6.99246 12.8947 7.10588C13.1216 7.20796 13.235 7.40078 13.235 7.68434V9.72596H15.2766C15.5602 9.72596 15.753 9.83938 15.8551 10.0662C15.9685 10.2931 15.9685 10.5199 15.8551 10.7468C15.753 10.9736 15.5602 11.087 15.2766 11.087H13.235V13.1287C13.235 13.4122 13.1216 13.6107 12.8947 13.7241C12.6679 13.8262 12.441 13.8262 12.2142 13.7241C11.9874 13.6107 11.8739 13.4122 11.8739 13.1287V11.087H9.83231Z" fill="#3D3D40"/>
</svg>
