<svg width="24" height="24" viewBox="0 0 24 24" fill="none" xmlns="http://www.w3.org/2000/svg">
    <path
        d="M8.8 4.6C9.83333 4.2 10.9 4 12 4C13.1333 4 14.2417 4.19167 15.325 4.575C16.4083 4.94167 17.3917 5.475 18.275 6.175C19.2083 6.89167 20 7.75833 20.65 8.775C21.3 9.775 21.7667 10.85 22.05 12C21.8667 12.7 21.6083 13.3833 21.275 14.05C20.9583 14.7 20.5583 15.3083 20.075 15.875L18.65 14.45C19.2667 13.75 19.7083 12.9333 19.975 12C19.7083 11.15 19.3333 10.3667 18.85 9.65C18.3667 8.93333 17.7583 8.29167 17.025 7.725C16.2917 7.14167 15.5 6.70833 14.65 6.425C13.8167 6.14167 12.9333 6 12 6C11.4333 6 10.9417 6.10833 10.525 6.325L8.8 4.6ZM8 12C8 11.2833 8.175 10.6167 8.525 10C8.89167 9.38333 9.375 8.90833 9.975 8.575L11.55 10.15C11.05 10.2167 10.6667 10.4083 10.4 10.725C10.1333 11.0417 10 11.4667 10 12C10 12.6167 10.175 13.1083 10.525 13.475C10.8917 13.825 11.3833 14 12 14C12.5333 14 12.9583 13.8667 13.275 13.6C13.5917 13.3333 13.7833 12.95 13.85 12.45L15.425 14.025C15.075 14.625 14.5917 15.1083 13.975 15.475C13.375 15.825 12.7167 16 12 16C11.2833 16 10.6167 15.825 10 15.475C9.38333 15.1083 8.89167 14.6167 8.525 14C8.175 13.3833 8 12.7167 8 12ZM1.975 12C2.24167 10.85 2.7 9.775 3.35 8.775C4 7.75833 4.79167 6.89167 5.725 6.175C6.00833 5.94167 6.375 5.69167 6.825 5.425L8.3 6.9C7.88333 7.08333 7.44167 7.35833 6.975 7.725C6.24167 8.29167 5.63333 8.93333 5.15 9.65C4.66667 10.3667 4.3 11.15 4.05 12C4.3 12.85 4.66667 13.6333 5.15 14.35C5.63333 15.0667 6.24167 15.7083 6.975 16.275C7.70833 16.8417 8.49167 17.275 9.325 17.575C10.175 17.8583 11.0667 18 12 18C12.95 18 13.8583 17.8417 14.725 17.525C15.5917 17.2083 16.475 16.6917 17.375 15.975L18.8 17.375C17.9833 18.1417 16.975 18.775 15.775 19.275C14.575 19.7583 13.3167 20 12 20C10.8667 20 9.75833 19.8167 8.675 19.45C7.60833 19.0667 6.625 18.525 5.725 17.825C4.79167 17.0917 4 16.225 3.35 15.225C2.7 14.225 2.24167 13.15 1.975 12ZM12.45 8.225C13.0333 8.175 13.5833 8.30833 14.1 8.625C14.6333 8.94167 15.05 9.375 15.35 9.925C15.6667 10.4583 15.8083 11 15.775 11.55L12.45 8.225ZM2.3 3.7C2 3.4 1.90833 3.08333 2.025 2.75C2.14167 2.4 2.375 2.16667 2.725 2.05C3.09167 1.93333 3.41667 2.01667 3.7 2.3L21.7 20.3C21.9833 20.5833 22.0667 20.9083 21.95 21.275C21.8333 21.625 21.6083 21.8583 21.275 21.975C20.9417 22.0917 20.6167 22 20.3 21.7L2.3 3.7Z"
        fill="#3D3D40" />
</svg>