<svg width="24" height="24" viewBox="0 0 24 24" fill="none" xmlns="http://www.w3.org/2000/svg">
    <path
        d="M12 20C10.8667 20 9.75833 19.8167 8.675 19.45C7.60833 19.0667 6.625 18.525 5.725 17.825C4.79167 17.0917 4 16.225 3.35 15.225C2.7 14.225 2.24167 13.15 1.975 12C2.24167 10.85 2.7 9.775 3.35 8.775C4 7.75833 4.79167 6.89167 5.725 6.175C6.625 5.475 7.60833 4.94167 8.675 4.575C9.75833 4.19167 10.8667 4 12 4C13.1333 4 14.2417 4.19167 15.325 4.575C16.4083 4.94167 17.3917 5.475 18.275 6.175C19.2083 6.89167 20 7.75833 20.65 8.775C21.3 9.775 21.7667 10.85 22.05 12C21.7667 13.15 21.3 14.225 20.65 15.225C20 16.225 19.2083 17.0917 18.275 17.825C17.3917 18.525 16.4083 19.0667 15.325 19.45C14.2417 19.8167 13.1333 20 12 20ZM12 18C12.9333 18 13.8167 17.8583 14.65 17.575C15.5 17.275 16.2917 16.8417 17.025 16.275C17.7583 15.7083 18.3667 15.0667 18.85 14.35C19.3333 13.6333 19.7083 12.85 19.975 12C19.7083 11.15 19.3333 10.3667 18.85 9.65C18.3667 8.93333 17.7583 8.29167 17.025 7.725C16.2917 7.14167 15.5 6.70833 14.65 6.425C13.8167 6.14167 12.9333 6 12 6C11.0667 6 10.175 6.14167 9.325 6.425C8.49167 6.70833 7.70833 7.14167 6.975 7.725C6.24167 8.29167 5.63333 8.93333 5.15 9.65C4.66667 10.3667 4.3 11.15 4.05 12C4.3 12.85 4.66667 13.6333 5.15 14.35C5.63333 15.0667 6.24167 15.7083 6.975 16.275C7.70833 16.8417 8.49167 17.275 9.325 17.575C10.175 17.8583 11.0667 18 12 18ZM12 16C11.2833 16 10.6167 15.825 10 15.475C9.38333 15.1083 8.89167 14.6167 8.525 14C8.175 13.3833 8 12.7167 8 12C8 11.2833 8.175 10.6167 8.525 10C8.89167 9.38333 9.38333 8.9 10 8.55C10.6167 8.18333 11.2833 8 12 8C12.7167 8 13.3833 8.18333 14 8.55C14.6167 8.9 15.1 9.38333 15.45 10C15.8167 10.6167 16 11.2833 16 12C16 12.7167 15.8167 13.3833 15.45 14C15.1 14.6167 14.6167 15.1083 14 15.475C13.3833 15.825 12.7167 16 12 16ZM12 14C12.6167 14 13.1 13.825 13.45 13.475C13.8167 13.1083 14 12.6167 14 12C14 11.3833 13.8167 10.9 13.45 10.55C13.1 10.1833 12.6167 10 12 10C11.3833 10 10.8917 10.1833 10.525 10.55C10.175 10.9 10 11.3833 10 12C10 12.6167 10.175 13.1083 10.525 13.475C10.8917 13.825 11.3833 14 12 14Z"
        fill="#3D3D40" />
</svg>