<svg width="928" height="928" viewBox="0 0 928 928" fill="none" xmlns="http://www.w3.org/2000/svg">
    <path fill-rule="evenodd" clip-rule="evenodd"
        d="M465.959 1.66956C499.504 78.5465 519.64 231.145 528.568 345.11C580.782 303.164 641.001 260.194 682.587 243.89C683.599 243.494 684.61 244.505 684.214 245.517C667.898 287.095 624.932 347.305 582.989 399.517C696.955 408.436 849.566 428.575 926.434 462.145C927.918 462.794 927.918 464.927 926.434 465.577C849.557 499.122 696.959 519.257 582.994 528.186C624.94 580.4 667.91 640.619 684.214 682.205C684.61 683.216 683.598 684.228 682.587 683.832C641.009 667.516 580.8 624.549 528.588 582.608C519.669 696.573 499.529 849.183 465.959 926.052C465.31 927.536 463.177 927.536 462.528 926.052C428.982 849.174 408.847 696.576 399.918 582.61C347.704 624.557 287.485 667.527 245.899 683.832C244.888 684.227 243.876 683.216 244.272 682.204C260.588 640.626 303.555 580.417 345.497 528.205C231.531 519.286 78.9207 499.146 2.05212 465.576C0.568237 464.927 0.568237 462.794 2.05212 462.145C78.9293 428.6 231.527 408.464 345.493 399.535C303.546 347.321 260.577 287.102 244.272 245.516C243.876 244.505 244.888 243.493 245.899 243.889C287.477 260.205 347.687 303.172 399.899 345.114C408.818 231.148 428.958 78.5382 462.527 1.66956C463.177 0.185669 465.31 0.185669 465.959 1.66956Z"
        fill="#161616" />
</svg>