<svg width="24" height="24" viewBox="0 0 24 24" fill="none" xmlns="http://www.w3.org/2000/svg">
<path d="M8 22C7.28333 22 6.61667 21.825 6 21.475C5.38333 21.1083 4.89167 20.6167 4.525 20C4.175 19.3833 4 18.7167 4 18V6C4 5.28333 4.175 4.61667 4.525 4C4.89167 3.38333 5.38333 2.9 6 2.55C6.61667 2.18333 7.28333 2 8 2H13.075C13.1917 2 13.2917 2.025 13.375 2.075C13.475 2.10833 13.5667 2.15833 13.65 2.225L19.775 8.35C19.8417 8.43333 19.8917 8.525 19.925 8.625C19.975 8.70833 20 8.80833 20 8.925V18C20 18.7167 19.8167 19.3833 19.45 20C19.1 20.6167 18.6167 21.1083 18 21.475C17.3833 21.825 16.7167 22 16 22H8ZM16 20C16.6167 20 17.1 19.825 17.45 19.475C17.8167 19.1083 18 18.6167 18 18V10H13.025C12.725 10 12.475 9.90833 12.275 9.725C12.0917 9.525 12 9.275 12 8.975V4H8C7.38333 4 6.89167 4.18333 6.525 4.55C6.175 4.9 6 5.38333 6 6V18C6 18.6167 6.175 19.1083 6.525 19.475C6.89167 19.825 7.38333 20 8 20H16ZM16.575 8L14 5.425V8H16.575Z" fill="#3D3D40"/>
<path d="M13.0114 14.5589L14.8114 12.775C15.1114 12.475 15.4281 12.3833 15.7614 12.5C16.1114 12.6167 16.3448 12.8583 16.4614 13.225C16.5781 13.575 16.4948 13.8917 16.2114 14.175L12.7364 17.675C12.5364 17.8917 12.2948 18 12.0114 18C11.7281 18 11.4864 17.8917 11.2864 17.675L7.81143 14.175C7.51143 13.875 7.41976 13.5583 7.53643 13.225C7.65309 12.875 7.88643 12.6417 8.23643 12.525C8.60309 12.4083 8.92809 12.4917 9.21143 12.775L11.0114 14.5589V8.975C11.0114 8.55833 11.1781 8.275 11.5114 8.125C11.8448 7.95833 12.1781 7.95833 12.5114 8.125C12.8448 8.275 13.0114 8.55833 13.0114 8.975V14.5589Z" fill="#3D3D40"/>
</svg>
