<svg width="24" height="24" viewBox="0 0 24 24" fill="none" xmlns="http://www.w3.org/2000/svg">
<path d="M6 7V18C6 18.6167 6.175 19.1083 6.525 19.475C6.89167 19.825 7.38333 20 8 20H16C16.6333 20 17.125 19.825 17.475 19.475C17.825 19.1083 18 18.6167 18 18V7H6ZM20 18C20 18.7333 19.825 19.4083 19.475 20.025C19.125 20.625 18.6417 21.1083 18.025 21.475C17.4083 21.825 16.7333 22 16 22H8C7.26667 22 6.59167 21.825 5.975 21.475C5.375 21.1083 4.89167 20.625 4.525 20.025C4.175 19.4083 4 18.7333 4 18V5H20V18ZM3 7C2.58333 7 2.29167 6.83333 2.125 6.5C1.975 6.16667 1.975 5.83333 2.125 5.5C2.29167 5.16667 2.58333 5 3 5H5V7H3ZM21 5C21.4167 5 21.7 5.16667 21.85 5.5C22.0167 5.83333 22.0167 6.16667 21.85 6.5C21.7 6.83333 21.4167 7 21 7H19V5H21ZM15 2C15.4167 2 15.7 2.16667 15.85 2.5C16.0167 2.83333 16.0167 3.16667 15.85 3.5C15.7 3.83333 15.4167 4 15 4H9C8.58333 4 8.29167 3.83333 8.125 3.5C7.975 3.16667 7.975 2.83333 8.125 2.5C8.29167 2.16667 8.58333 2 9 2H15Z" fill="#3D3D40"/>
</svg>
